# xmcd CD database file
#
# Track frame offsets:
#       150
#       12163
#       26980
#       37838
#       51295
#       64003
#       74418
#       89390
#       102420
#       112663
#       127480
#       140140
#       152188
#       162078
#       175378
#       184120
#       195410
#       206033
#       215495
#       226353
#
# Disc length: 3175 seconds
#
# Revision: 2
# Processed by: cddbd v1.5.2PL0 Copyright (c) Steve Scherf et al.
# Submitted via: CDDBEditor PBVER-PBREV
#
DISCID=250c6514
DTITLE=Golden Gate Quartet - The very best of the Golden Gate Quartet 1/2
DYEAR=1994
DGENRE=Jazz
TTITLE0=Shadrack
TTITLE1=Swing low sweet chariot
TTITLE2=Didn't it rain
TTITLE3=I pitched my tent
TTITLE4=Invisible hands
TTITLE5=Joshua fit the battle of Jericho
TTITLE6=You never walk alone
TTITLE7=Nobody knows the trouble I've seen
TTITLE8=Elijah
TTITLE9=Sometimes I feel like a motherless child
TTITLE10=Down by the riverside
TTITLE11='Round the bay of Mexico
TTITLE12=My heart is an open book
TTITLE13=Mister blue
TTITLE14=Casey Jones
TTITLE15=Alabama Bound
TTITLE16=Roll Jordan, roll
TTITLE17=Ezekiel saw the wheel
TTITLE18=Rudolph, the red nose reindeer
TTITLE19=Poor little Jesus
EXTD=
EXTT0=
EXTT1=
EXTT2=
EXTT3=
EXTT4=
EXTT5=
EXTT6=
EXTT7=
EXTT8=
EXTT9=
EXTT10=
EXTT11=
EXTT12=
EXTT13=
EXTT14=
EXTT15=
EXTT16=
EXTT17=
EXTT18=
EXTT19=
PLAYORDER=
